<?xml version="1.0" encoding="utf-8"?>
<!-- Generator: Adobe Illustrator 25.2.2, SVG Export Plug-In . SVG Version: 6.00 Build 0)  -->
<svg version="1.1" id="Layer_1" xmlns="http://www.w3.org/2000/svg" xmlns:xlink="http://www.w3.org/1999/xlink" x="0px" y="0px"
	 viewBox="0 0 585 1080" style="enable-background:new 0 0 585 1080;" xml:space="preserve">
<style type="text/css">
	.st0{display:none;}
	.st1{display:inline;fill:none;stroke:#36A9E1;stroke-miterlimit:10;}
	.st2{fill:none;stroke:#020202;stroke-width:7;stroke-miterlimit:10;}
</style>
<g id="Layer_1_1_" class="st0">
	<polygon class="st1" points="-245.6,0 293.9,0 293.9,1081 -245.6,1081 	"/>
	<polygon class="st1" points="294.2,-0.7 834.5,-0.7 834.5,1080.3 294.2,1080.3 	"/>
	<polygon class="st1" points="-242.5,2.9 837.2,2.9 837.2,543.8 -242.5,543.8 	"/>
	<polygon class="st1" points="-244.4,812 835.3,812 835.3,1082.5 -244.4,1082.5 	"/>
	<polygon class="st1" points="-245,273.3 834.7,273.3 834.7,543.8 -245,543.8 	"/>
	<polygon class="st1" points="-243.9,1.9 26.6,1.9 26.6,1081.6 -243.9,1081.6 	"/>
	<polygon class="st1" points="564.9,0 835.4,0 835.4,1079.7 564.9,1079.7 	"/>
	<polygon class="st1" points="-246.9,810.1 832.8,810.1 832.8,945.3 -246.9,945.3 	"/>
	<polygon class="st1" points="-245,544.5 834.7,544.5 834.7,679.7 -245,679.7 	"/>
	<polygon class="st1" points="-245,273 834.7,273 834.7,408.2 -245,408.2 	"/>
	<polygon class="st1" points="-245,1.5 834.7,1.5 834.7,136.7 -245,136.7 	"/>
	<polygon class="st1" points="-241.9,2.5 -106.7,2.5 -106.7,1082.2 -241.9,1082.2 	"/>
	<polygon class="st1" points="26.4,2.5 161.6,2.5 161.6,1082.2 26.4,1082.2 	"/>
	<polygon class="st1" points="293.9,0 429.1,0 429.1,1079.7 293.9,1079.7 	"/>
	<polygon class="st1" points="564.1,0 699.3,0 699.3,1079.7 564.1,1079.7 	"/>
</g>
<g id="Layer_2_1_">
	<line class="st2" x1="562.9" y1="135.3" x2="25.9" y2="946.2"/>
	<path class="st2" d="M562.9,135.3c-0.1,270-0.2,539.9-0.3,809.9"/>
	<line class="st2" x1="564.6" y1="679.2" x2="203.5" y2="678.4"/>
	<path class="st2" d="M26.8,138.3c218.4-1.8,398.9,179.9,400.3,400.7c1.4,223.1-180.5,408.4-401.2,406"/>
	<path class="st2" d="M27.4,137.8c-0.3,269.5-0.6,539.1-0.9,808.6"/>
	<path class="st2" d="M563,137.9c-179.3-0.2-358.6-0.5-538-0.7"/>
	<path class="st2" d="M562,945.6c-86.1-0.1-172.2-0.2-258.2-0.3c-93.2-0.1-186.5-0.2-279.7-0.4"/>
	<path class="st2" d="M294.8,134.8c-0.1,270-0.2,539.9-0.3,809.9"/>
	<line class="st2" x1="427.1" y1="545" x2="26.5" y2="545"/>
</g>
</svg>
