<?xml version="1.0" encoding="utf-8"?>
<!-- Generator: Adobe Illustrator 24.1.2, SVG Export Plug-In . SVG Version: 6.00 Build 0)  -->
<svg version="1.1" id="Layer_1" xmlns="http://www.w3.org/2000/svg" xmlns:xlink="http://www.w3.org/1999/xlink" x="0px" y="0px"
	 viewBox="0 0 1080 1080" style="enable-background:new 0 0 1080 1080;" xml:space="preserve">
<style type="text/css">
	.st0{display:none;}
	.st1{display:inline;fill:none;stroke:#36A9E1;stroke-miterlimit:10;}
	.st2{fill:none;stroke:#FCFCFC;stroke-width:4;stroke-miterlimit:10;}
</style>
<g id="Layer_1_1_" class="st0">
	<rect x="-0.6" class="st1" width="539.5" height="1081"/>
	<rect x="539.2" y="-0.7" class="st1" width="540.3" height="1081"/>
	<rect x="2.5" y="2.9" class="st1" width="1079.7" height="540.9"/>
	<rect x="0.6" y="812" class="st1" width="1079.7" height="270.5"/>
	<rect x="0" y="273.3" class="st1" width="1079.7" height="270.5"/>
	<rect x="1.1" y="1.9" class="st1" width="270.5" height="1079.7"/>
	<rect x="809.9" y="0" class="st1" width="270.5" height="1079.7"/>
	<rect x="-1.9" y="810.1" class="st1" width="1079.7" height="135.2"/>
	<rect x="0" y="544.5" class="st1" width="1079.7" height="135.2"/>
	<rect x="0" y="273" class="st1" width="1079.7" height="135.2"/>
	<rect x="0" y="1.5" class="st1" width="1079.7" height="135.2"/>
	<rect x="3.1" y="2.5" class="st1" width="135.2" height="1079.7"/>
	<rect x="271.4" y="2.5" class="st1" width="135.2" height="1079.7"/>
	<rect x="538.9" y="0" class="st1" width="135.2" height="1079.7"/>
	<rect x="809.1" y="0" class="st1" width="135.2" height="1079.7"/>
</g>
<g id="Layer_2_1_">
	<line class="st2" x1="807.9" y1="135.3" x2="270.9" y2="946.2"/>
	<path class="st2" d="M807.9,135.3c-0.1,270-0.2,539.9-0.3,809.9"/>
	<line class="st2" x1="809.6" y1="679.2" x2="448.5" y2="678.4"/>
	<path class="st2" d="M271.8,138.3c218.4-1.8,398.9,179.9,400.3,400.7c1.4,223.1-180.5,408.4-401.2,406"/>
	<path class="st2" d="M272.4,137.8c-0.3,269.5-0.6,539.1-0.9,808.6"/>
	<path class="st2" d="M808,137.9c-179.3-0.2-358.6-0.5-538-0.7"/>
	<path class="st2" d="M807,945.6c-86.1-0.1-172.2-0.2-258.2-0.3c-93.2-0.1-186.5-0.2-279.7-0.4"/>
	<path class="st2" d="M539.8,134.8c-0.1,270-0.2,539.9-0.3,809.9"/>
	<line class="st2" x1="672.1" y1="545" x2="271.5" y2="545"/>
</g>
</svg>
