<?xml version="1.0" encoding="utf-8"?>
<!-- Generator: Adobe Illustrator 24.1.2, SVG Export Plug-In . SVG Version: 6.00 Build 0)  -->
<svg version="1.1" id="Layer_1" xmlns="http://www.w3.org/2000/svg" xmlns:xlink="http://www.w3.org/1999/xlink" x="0px" y="0px"
	 viewBox="0 0 1080 1080" style="enable-background:new 0 0 1080 1080;" xml:space="preserve">
<style type="text/css">
	.st0{display:none;}
	.st1{display:inline;fill:none;stroke:#36A9E1;stroke-miterlimit:10;}
	.st2{fill:none;stroke:#020202;stroke-width:7;stroke-miterlimit:10;}
</style>
<g id="Layer_1_1_" class="st0">
	<polygon class="st1" points="-0.6,0 538.9,0 538.9,1081 -0.6,1081 	"/>
	<polygon class="st1" points="539.2,-0.7 1079.5,-0.7 1079.5,1080.3 539.2,1080.3 	"/>
	<polygon class="st1" points="2.5,2.9 1082.2,2.9 1082.2,543.8 2.5,543.8 	"/>
	<polygon class="st1" points="0.6,812 1080.3,812 1080.3,1082.5 0.6,1082.5 	"/>
	<polygon class="st1" points="0,273.3 1079.7,273.3 1079.7,543.8 0,543.8 	"/>
	<polygon class="st1" points="1.1,1.9 271.6,1.9 271.6,1081.6 1.1,1081.6 	"/>
	<polygon class="st1" points="809.9,0 1080.4,0 1080.4,1079.7 809.9,1079.7 	"/>
	<polygon class="st1" points="-1.9,810.1 1077.8,810.1 1077.8,945.3 -1.9,945.3 	"/>
	<polygon class="st1" points="0,544.5 1079.7,544.5 1079.7,679.7 0,679.7 	"/>
	<polygon class="st1" points="0,273 1079.7,273 1079.7,408.2 0,408.2 	"/>
	<polygon class="st1" points="0,1.5 1079.7,1.5 1079.7,136.7 0,136.7 	"/>
	<polygon class="st1" points="3.1,2.5 138.3,2.5 138.3,1082.2 3.1,1082.2 	"/>
	<polygon class="st1" points="271.4,2.5 406.6,2.5 406.6,1082.2 271.4,1082.2 	"/>
	<polygon class="st1" points="538.9,0 674.1,0 674.1,1079.7 538.9,1079.7 	"/>
	<polygon class="st1" points="809.1,0 944.3,0 944.3,1079.7 809.1,1079.7 	"/>
</g>
<g id="Layer_2_1_">
	<line class="st2" x1="807.9" y1="135.3" x2="270.9" y2="946.2"/>
	<path class="st2" d="M807.9,135.3c-0.1,270-0.2,539.9-0.3,809.9"/>
	<line class="st2" x1="809.6" y1="679.2" x2="448.5" y2="678.4"/>
	<path class="st2" d="M271.8,138.3c218.4-1.8,398.9,179.9,400.3,400.7c1.4,223.1-180.5,408.4-401.2,406"/>
	<path class="st2" d="M272.4,137.8c-0.3,269.5-0.6,539.1-0.9,808.6"/>
	<path class="st2" d="M808,137.9c-179.3-0.2-358.6-0.5-538-0.7"/>
	<path class="st2" d="M807,945.6c-86.1-0.1-172.2-0.2-258.2-0.3c-93.2-0.1-186.5-0.2-279.7-0.4"/>
	<path class="st2" d="M539.8,134.8c-0.1,270-0.2,539.9-0.3,809.9"/>
	<line class="st2" x1="672.1" y1="545" x2="271.5" y2="545"/>
</g>
</svg>
